<svg height="512pt" viewBox="0 0 512 512" width="512pt" xmlns="http://www.w3.org/2000/svg"><path d="m437.019531 74.980469c-48.351562-48.351563-112.640625-74.980469-181.019531-74.980469s-132.667969 26.628906-181.019531 74.980469c-48.351563 48.351562-74.980469 112.640625-74.980469 181.019531s26.628906 132.667969 74.980469 181.019531c48.351562 48.351563 112.640625 74.980469 181.019531 74.980469s132.667969-26.628906 181.019531-74.980469c48.351563-48.351562 74.980469-112.640625 74.980469-181.019531s-26.628906-132.667969-74.980469-181.019531zm-181.019531 407.019531c-124.617188 0-226-101.382812-226-226s101.382812-226 226-226 226 101.382812 226 226-101.382812 226-226 226zm0 0"/><path d="m256 69.734375c-102.707031 0-186.265625 83.558594-186.265625 186.265625s83.558594 186.265625 186.265625 186.265625 186.265625-83.558594 186.265625-186.265625-83.558594-186.265625-186.265625-186.265625zm0 342.53125c-86.164062 0-156.265625-70.101563-156.265625-156.265625s70.101563-156.265625 156.265625-156.265625 156.265625 70.101563 156.265625 156.265625-70.101563 156.265625-156.265625 156.265625zm0 0"/><path d="m271 132.332031h-30v138.667969h102.667969v-30h-72.667969zm0 0"/></svg>